<?xml version="1.0" encoding="UTF-8" standalone="no"?>
<!-- Generator: Adobe Illustrator 19.0.0, SVG Export Plug-In . SVG Version: 6.00 Build 0)  -->

<svg
   width="40px"
   height="40px"
   fill="#b3cd34"
   version="1.1"
   id="Capa_1"
   x="0px"
   y="0px"
   viewBox="0 0 60 60"
   style="enable-background:new 0 0 60 60;"
   xml:space="preserve"
   sodipodi:docname="range__star_green_1111.svg"
   inkscape:version="1.1 (c68e22c387, 2021-05-23)"
   xmlns:inkscape="http://www.inkscape.org/namespaces/inkscape"
   xmlns:sodipodi="http://sodipodi.sourceforge.net/DTD/sodipodi-0.dtd"
   xmlns="http://www.w3.org/2000/svg"
   xmlns:svg="http://www.w3.org/2000/svg"><defs
   id="defs906"><pattern
     patternUnits="userSpaceOnUse"
     width="33.090252"
     height="32.062674"
     patternTransform="translate(-4.920126,-2.093837)"
     id="pattern1742"><path
       d="m 17.29586,1.5293358 3.936801,9.4551892 10.085288,0.879205 c 0.698893,0.06203 0.9842,0.945519 0.453396,1.41186 l -7.64801,6.721312 2.291306,9.99854 c 0.159242,0.693098 -0.583885,1.240724 -1.185463,0.870646 L 16.563792,25.567333 7.8984038,30.866088 C 7.2968251,31.234027 6.5559106,30.688536 6.7151518,29.995442 L 9.0064591,19.996902 1.3584516,13.27559 C 0.82764697,12.809249 1.1085311,11.923627 1.8096356,11.86373 L 11.894921,10.984525 15.831723,1.5293358 c 0.251724,-0.65695575 1.212414,-0.65695575 1.464137,0 z"
       style="clip-rule:evenodd;fill:#cb11ab;fill-rule:evenodd;stroke:#cb11ab;stroke-width:2.17513"
       id="path1043-8" /></pattern></defs><sodipodi:namedview
   id="namedview904"
   pagecolor="#ffffff"
   bordercolor="#666666"
   borderopacity="1.0"
   inkscape:pageshadow="2"
   inkscape:pageopacity="0.0"
   inkscape:pagecheckerboard="0"
   showgrid="false"
   inkscape:zoom="4"
   inkscape:cx="-4.125"
   inkscape:cy="16.625"
   inkscape:window-width="1920"
   inkscape:window-height="1017"
   inkscape:window-x="-8"
   inkscape:window-y="104"
   inkscape:window-maximized="1"
   inkscape:current-layer="Capa_1" />

<path
   style="fill:#b3b3b3;stroke-width:1.10506;stroke-linecap:round;stroke-linejoin:round"
   d="m 10.251873,48.928201 c -1.8289223,-0.684126 -1.8424632,-1.659703 -0.127568,-9.19004 0.874522,-3.840154 1.668035,-7.244344 1.763362,-7.56487 0.113514,-0.381672 -1.435607,-1.986186 -4.4891893,-4.649707 -7.3287906,-6.39262 -7.13712293,-6.185704 -7.13712293,-7.704966 0,-2.081331 0.79241553,-2.363595 8.56595463,-3.05124 3.7690196,-0.333405 7.1316946,-0.605338 7.4726136,-0.604292 0.444295,0.0014 1.409272,-1.901304 3.407172,-6.7179866 1.533026,-3.6959392 3.108208,-7.1285763 3.500405,-7.6280825 0.788298,-1.00398981 2.413103,-1.21003551 3.402188,-0.4314402 0.333104,0.2622158 1.846644,3.4803126 3.363423,7.1513273 1.516778,3.671014 2.947344,6.870762 3.179034,7.110549 0.236526,0.244792 3.593305,0.721635 7.654729,1.087383 3.978409,0.358273 7.541481,0.816138 7.917936,1.017477 0.953905,0.510181 1.468685,2.034645 1.04168,3.084873 -0.191897,0.471988 -2.833612,3.003558 -5.870483,5.625711 -3.316799,2.86385 -5.529997,5.051166 -5.542664,5.477823 -0.01157,0.390649 0.664197,3.717268 1.501756,7.392488 0.837562,3.675219 1.522837,7.061987 1.522837,7.526157 0,1.089033 -1.235365,2.201726 -2.444457,2.201726 -0.754622,0 -6.674433,-3.336297 -13.04683,-7.352955 -0.771598,-0.486356 -1.288977,-0.249018 -6.915943,3.172512 -6.920037,4.207798 -7.531528,4.491669 -8.718833,4.047553 z"
   id="path2942" /><g
   id="g873">
</g>
<g
   id="g875">
</g>
<g
   id="g877">
</g>
<g
   id="g879">
</g>
<g
   id="g881">
</g>
<g
   id="g883">
</g>
<g
   id="g885">
</g>
<g
   id="g887">
</g>
<g
   id="g889">
</g>
<g
   id="g891">
</g>
<g
   id="g893">
</g>
<g
   id="g895">
</g>
<g
   id="g897">
</g>
<g
   id="g899">
</g>
<g
   id="g901">
</g>
</svg>
